#!OML:ASF F:\VICON\USERDATA\INSTALL\rory3\rory3.ASF
:FULLY-SPECIFIED
:DEGREES
4196
root 4.43875 16.8708 0.0997573 -5.44567 -71.4643 12.533
lowerback 11.7126 -0.429716 -1.03581
upperback 1.68889 -0.581036 3.94416
thorax -4.74874 -0.2758 4.82852
lowerneck -21.4744 9.06701 -5.44573
upperneck 21.0458 14.9807 -2.58287
head 10.0607 6.07683 2.11945
rclavicle 3.02153e-014 1.59028e-014
rhumerus -47.8415 -6.51016 -72.359
rradius 88.4292
rwrist -20.648
rhand -8.38667 23.1775
rfingers 7.12502
rthumb 17.5368 -6.05157
lclavicle 3.02153e-014 1.59028e-014
lhumerus -11.0598 21.4712 71.9861
lradius 129.574
lwrist 2.83286
lhand -12.5604 8.93669
lfingers 7.12502
lthumb 13.5169 38.478
rfemur -14.9621 1.75732 8.08296
rtibia 48.4308
rfoot -28.6163 8.38018
rtoes -11.761
lfemur -32.6048 7.67599 -6.37224
ltibia 44.255
lfoot -2.61675 0.961244
ltoes -20.8076
4197
root 4.46497 16.8519 0.168822 -3.91959 -71.5426 10.8808
lowerback 11.9306 -0.490167 -0.621828
upperback 1.81273 -0.610664 4.0914
thorax -4.73951 -0.301955 4.75638
lowerneck -21.6729 9.00385 -5.5755
upperneck 20.8544 14.8879 -2.39782
head 10.0011 6.05786 2.18956
rclavicle 2.54444e-014 2.54444e-014
rhumerus -48.5293 -7.5796 -71.6762
rradius 85.4082
rwrist -21.2176
rhand -8.35358 23.1282
rfingers 7.12502
rthumb 17.5686 -6.09801
lclavicle 2.54444e-014 2.54444e-014
lhumerus -11.2854 21.9596 71.3255
lradius 129.931
lwrist 3.30192
lhand -12.6574 9.41434
lfingers 7.12502
lthumb 13.4234 38.9618
rfemur -15.4592 1.52732 8.3535
rtibia 49.3881
rfoot -27.9813 8.51883
rtoes -12.364
lfemur -32.3867 7.90475 -5.83643
ltibia 44.0406
lfoot -2.57137 0.177739
ltoes -21.7111
4198
root 4.48594 16.838 0.239322 -3.13363 -71.512 10.0061
lowerback 12.1038 -0.533239 -0.44538
upperback 1.93707 -0.6476 4.19899
thorax -4.70216 -0.327455 4.77807
lowerneck -21.9688 8.92164 -5.66689
upperneck 20.7368 14.8161 -2.38644
head 10.0058 6.01982 2.20795
rclavicle -3.18055e-014 -1.90833e-014
rhumerus -49.1987 -8.60076 -70.8845
rradius 82.6763
rwrist -21.781
rhand -8.43237 22.8863
rfingers 7.12502
rthumb 17.4928 -6.3467
lclavicle -3.18055e-014 -1.90833e-014
lhumerus -11.4765 22.5789 70.7668
lradius 130.118
lwrist 3.95112
lhand -12.6454 9.12355
lfingers 7.12502
lthumb 13.435 38.6703
rfemur -15.8948 1.26298 8.32679
rtibia 50.332
rfoot -27.3454 8.60541
rtoes -13.5104
lfemur -32.1626 7.97508 -5.60992
ltibia 43.8443
lfoot -2.56145 -0.633261
ltoes -23.3858
4199
root 4.50667 16.8199 0.311784 -3.59502 -71.2637 10.4959
lowerback 12.2184 -0.571146 -0.690888
upperback 2.03802 -0.733297 4.18278
thorax -4.64902 -0.368738 4.91587
lowerneck -22.2255 8.80529 -5.75865
upperneck 20.5654 14.6908 -2.37987
head 9.98555 5.96129 2.21303
rclavicle -5.56597e-015 4.77083e-015
rhumerus -49.9067 -9.51784 -69.9324
rradius 80.3072
rwrist -22.5774
rhand -8.35928 22.5825
rfingers 7.12502
rthumb 17.5631 -6.64416
lclavicle -5.56597e-015 4.77083e-015
lhumerus -11.7574 23.1285 70.2742
lradius 130.37
lwrist 4.71696
lhand -12.6252 8.92704
lfingers 7.12502
lthumb 13.4545 38.4725
rfemur -16.2965 0.947621 7.72599
rtibia 51.2816
rfoot -26.5579 9.30926
rtoes -12.57
lfemur -32.0454 7.91923 -5.93691
ltibia 43.6205
lfoot -2.61374 -1.34569
ltoes -23.7609
4200
root 4.52566 16.7948 0.388516 -4.07461 -70.714 11.1354
lowerback 12.1413 -0.686827 -0.970144
upperback 2.10335 -0.926708 4.14379
thorax -4.51634 -0.463026 5.0607
lowerneck -22.4533 8.70751 -5.83879
upperneck 20.3937 14.5832 -2.36439
head 9.95966 5.91392 2.22009
rclavicle -3.73715e-014 3.18055e-015
rhumerus -50.668 -10.4778 -68.8752
rradius 78.228
rwrist -23.4525
rhand -8.05144 22.3581
rfingers 7.12502
rthumb 17.8593 -6.84185
lclavicle -3.73715e-014 3.18055e-015
lhumerus -12.1003 23.5379 69.8126
lradius 130.64
lwrist 5.31176
lhand -12.6727 9.20259
lfingers 7.12502
lthumb 13.4087 38.7511
rfemur -16.7276 0.369011 6.97363
rtibia 52.2387
rfoot -25.7571 10.0932
rtoes -11.9647
lfemur -32.2316 7.87326 -6.50766
ltibia 43.377
lfoot -2.64228 -2.10975
ltoes -23.616
4201
root 4.53748 16.77 0.465918 -4.45245 -70.0263 11.5741
lowerback 12.0657 -0.767673 -1.19805
upperback 2.23499 -1.06969 4.12101
thorax -4.31887 -0.536679 5.18335
lowerneck -22.8169 8.52594 -5.99206
upperneck 20.2321 14.3959 -2.34296
head 9.95798 5.82079 2.23598
rclavicle -1.59028e-015 -4.77083e-015
rhumerus -51.4353 -11.806 -67.7705
rradius 76.3974
rwrist -24.4056
rhand -7.04716 22.1143
rfingers 7.12502
rthumb 18.8255 -6.99474
lclavicle -1.59028e-015 -4.77083e-015
lhumerus -12.2623 23.7542 69.6107
lradius 130.775
lwrist 5.5773
lhand -12.768 9.58961
lfingers 7.12502
lthumb 13.3168 39.1441
rfemur -16.9814 -0.147773 6.26976
rtibia 53.1725
rfoot -25.0541 10.6722
rtoes -11.9579
lfemur -32.4061 7.80811 -7.12213
ltibia 43.1679
lfoot -2.82853 -3.19638
ltoes -24.0837
4202
root 4.54197 16.7423 0.539925 -4.9521 -69.291 11.9957
lowerback 12.1205 -0.776373 -1.55076
upperback 2.4345 -1.13379 4.13312
thorax -4.12572 -0.572528 5.40528
lowerneck -23.4629 8.26906 -6.24698
upperneck 20.1332 14.1635 -2.28913
head 10.0206 5.69198 2.28726
rclavicle 3.37934e-014 -3.81667e-014
rhumerus -52.1848 -13.2724 -66.6144
rradius 74.9164
rwrist -25.8867
rhand -5.72889 21.6964
rfingers 7.12502
rthumb 20.093 -7.2846
lclavicle 3.37934e-014 -3.81667e-014
lhumerus -12.1961 24.1349 69.5327
lradius 130.635
lwrist 5.64014
lhand -12.4484 9.44699
lfingers 7.12502
lthumb 13.6249 38.9811
rfemur -16.9929 -0.4243 5.56128
rtibia 54.0542
rfoot -24.2933 11.4244
rtoes -11.0013
lfemur -32.4779 7.80035 -7.7712
ltibia 43.0658
lfoot -3.41993 -4.34154
ltoes -24.5545
4203
root 4.54166 16.7063 0.612601 -5.41953 -68.462 12.3702
lowerback 12.1911 -0.768875 -1.99859
upperback 2.51501 -1.18045 4.1932
thorax -4.06424 -0.593614 5.73455
lowerneck -23.7783 8.04191 -6.52885
upperneck 20.0499 13.9488 -2.2114
head 10.0261 5.57995 2.33605
rclavicle -4.85035e-014 -3.49861e-014
rhumerus -53.081 -14.3902 -65.3703
rradius 73.7615
rwrist -28.4621
rhand -4.69091 21.1219
rfingers 7.12502
rthumb 21.0904 -7.75112
lclavicle -4.85035e-014 -3.49861e-014
lhumerus -12.3678 24.6294 69.4811
lradius 130.378
lwrist 5.39962
lhand -11.782 9.20981
lfingers 7.12502
lthumb 14.2671 38.6997
rfemur -16.8947 -0.609864 4.84739
rtibia 54.8762
rfoot -23.28 12.4506
rtoes -8.6337
lfemur -32.6074 7.93594 -8.48228
ltibia 43.0837
lfoot -4.13655 -5.0566
ltoes -25.3736
4204
root 4.53769 16.6639 0.684987 -4.96288 -67.5139 11.7338
lowerback 12.2685 -0.771854 -2.12482
upperback 2.44171 -1.1912 4.33807
thorax -4.17674 -0.592669 5.96909
lowerneck -23.6241 7.81887 -6.69484
upperneck 19.9887 13.6505 -2.10012
head 9.96375 5.45315 2.34582
rclavicle -5.32743e-014 3.97569e-014
rhumerus -54.1599 -15.3566 -64.044
rradius 72.7041
rwrist -31.6574
rhand -3.9951 20.1311
rfingers 7.12502
rthumb 21.7587 -8.66592
lclavicle -5.32743e-014 3.97569e-014
lhumerus -13.0428 24.7821 69.5031
lradius 130.294
lwrist 4.87668
lhand -11.4108 9.04076
lfingers 7.12502
lthumb 14.6247 38.5051
rfemur -16.6745 -0.677024 4.56129
rtibia 55.6452
rfoot -22.1069 13.5477
rtoes -4.6973
lfemur -32.8116 8.00846 -8.79848
ltibia 43.2238
lfoot -4.68458 -5.32145
ltoes -25.7252
4205
root 4.5281 16.6189 0.757648 -4.08076 -66.454 10.6364
lowerback 12.2198 -0.765572 -2.093
upperback 2.3853 -1.17019 4.47788
thorax -4.20939 -0.579988 6.09758
lowerneck -23.5883 7.59021 -6.66734
upperneck 20.0417 13.3146 -2.04633
head 9.98317 5.30525 2.31407
rclavicle 3.10104e-014 -1.74931e-014
rhumerus -55.2467 -16.6052 -62.7128
rradius 71.7101
rwrist -34.7722
rhand -2.97255 19.1232
rfingers 7.12502
rthumb 22.7403 -9.55667
lclavicle 3.10104e-014 -1.74931e-014
lhumerus -13.7329 24.64 69.561
lradius 130.318
lwrist 4.36191
lhand -11.3696 8.77877
lfingers 7.12502
lthumb 14.6644 38.2402
rfemur -16.3498 -0.832615 4.52535
rtibia 56.3575
rfoot -21.3783 14.1427
rtoes -3.44943
lfemur -33.0541 7.82322 -8.87036
ltibia 43.4777
lfoot -5.39229 -5.74808
ltoes -24.6612
4206
root 4.51232 16.5745 0.828317 -3.30315 -65.2261 9.70274
lowerback 12.0486 -0.789516 -2.19046
upperback 2.32524 -1.20428 4.63166
thorax -4.16847 -0.594387 6.3199
lowerneck -23.7784 7.36888 -6.62888
upperneck 20.2196 13.028 -2.03586
head 10.0914 5.16121 2.28798
rclavicle 3.57812e-015 -3.18055e-014
rhumerus -56.2928 -17.8876 -61.3099
rradius 70.8762
rwrist -37.3556
rhand -1.01383 19.3662
rfingers 7.12502
rthumb 24.6189 -9.07056
lclavicle 3.57812e-015 -3.18055e-014
lhumerus -14.3546 24.4354 69.6663
lradius 130.335
lwrist 3.88671
lhand -11.6869 8.77017
lfingers 7.12502
lthumb 14.3587 38.2536
rfemur -15.9808 -1.21723 4.49801
rtibia 57.0012
rfoot -21.028 14.1392
rtoes -6.16926
lfemur -33.4201 7.61499 -9.03682
ltibia 43.8262
lfoot -6.24189 -6.89135
ltoes -23.6941
4207
root 4.49179 16.5338 0.899673 -2.43254 -63.8031 8.70081
lowerback 11.8105 -0.853875 -2.33974
upperback 2.21565 -1.29344 4.86381
thorax -4.13214 -0.634015 6.66406
lowerneck -23.9905 7.13286 -6.73012
upperneck 20.4187 12.7449 -1.915
head 10.1932 5.02169 2.32114
rclavicle 2.54444e-014 -2.38542e-014
rhumerus -57.2549 -18.9962 -59.8017
rradius 70.106
rwrist -38.6803
rhand 0.320705 20.0304
rfingers 7.12502
rthumb 25.8975 -8.22585
lclavicle 2.54444e-014 -2.38542e-014
lhumerus -15.0634 24.1939 69.9604
lradius 130.436
lwrist 3.45667
lhand -11.7678 9.1568
lfingers 7.12502
lthumb 14.2807 38.6457
rfemur -15.5118 -1.77672 4.57149
rtibia 57.5419
rfoot -20.7096 14.0374
rtoes -9.08699
lfemur -33.8829 7.28054 -9.15833
ltibia 44.2262
lfoot -7.05619 -8.01912
ltoes -23.2431
4208
root 4.46877 16.4966 0.975198 -1.29107 -62.282 7.2631
lowerback 11.6224 -0.879542 -2.27562
upperback 2.15855 -1.30751 5.13259
thorax -4.0814 -0.641598 6.91399
lowerneck -24.384 6.78643 -6.98757
upperneck 20.6937 12.3278 -1.55806
head 10.3309 4.83274 2.44937
rclavicle -1.43125e-014 1.43125e-014
rhumerus -58.0893 -20.2497 -58.2207
rradius 69.3025
rwrist -38.575
rhand 0.0199492 19.9581
rfingers 7.12502
rthumb 25.6095 -8.33995
lclavicle -1.43125e-014 1.43125e-014
lhumerus -15.6181 23.9249 70.451
lradius 130.52
lwrist 3.19224
lhand -11.2915 9.20308
lfingers 7.12502
lthumb 14.7396 38.659
rfemur -14.7948 -2.36816 4.96812
rtibia 57.9486
rfoot -20.5648 13.9343
rtoes -9.48439
lfemur -34.2098 6.73726 -8.97373
ltibia 44.6369
lfoot -7.92008 -8.80067
ltoes -23.1124
4209
root 4.44278 16.4593 1.04982 0.0486716 -60.5594 5.57034
lowerback 11.4318 -0.905642 -1.96558
upperback 2.09057 -1.29416 5.35997
thorax -4.05115 -0.637777 6.9728
lowerneck -24.9752 6.35532 -7.21544
upperneck 21.0878 11.7786 -1.07176
head 10.5472 4.59352 2.61217
rclavicle 3.29983e-014 3.65764e-014
rhumerus -58.9071 -21.6442 -56.6182
rradius 68.5466
rwrist -37.7962
rhand -0.598677 19.8769
rfingers 7.12502
rthumb 25.0168 -8.50502
lclavicle 3.29983e-014 3.65764e-014
lhumerus -16.0351 23.5744 71.0085
lradius 130.508
lwrist 3.02346
lhand -10.8988 8.89037
lfingers 7.12502
lthumb 15.118 38.3182
rfemur -13.9274 -3.02075 5.6544
rtibia 58.212
rfoot -20.6022 13.5884
rtoes -10.1221
lfemur -34.5503 5.89806 -8.55497
ltibia 45.0281
lfoot -8.82603 -9.71127
ltoes -22.6229
